<svg width="121" height="24" viewBox="0 0 121 24" fill="none" xmlns="http://www.w3.org/2000/svg">
<path d="M16.0872 23.7888L12.3911 20.0927C11.4871 20.3409 10.5652 20.4649 9.62572 20.4649C7.9062 20.4649 6.33736 20.0661 4.9192 19.2684C3.50104 18.4529 2.37538 17.3273 1.54221 15.8914C0.726771 14.4378 0.31905 12.8069 0.31905 10.9987C0.31905 9.19058 0.726771 7.56856 1.54221 6.13267C2.37538 4.67906 3.50104 3.5534 4.9192 2.75568C6.33736 1.94024 7.9062 1.53252 9.62572 1.53252C11.363 1.53252 12.9407 1.94024 14.3588 2.75568C15.777 3.5534 16.8938 4.6702 17.7092 6.10608C18.5247 7.54197 18.9324 9.17285 18.9324 10.9987C18.9324 12.7714 18.5424 14.3669 17.7624 15.785C16.9824 17.2032 15.9099 18.32 14.545 19.1354L19.2249 23.7888H16.0872ZM2.79196 10.9987C2.79196 12.4701 3.08446 13.7641 3.66945 14.8809C4.27217 15.9977 5.08761 16.8575 6.11577 17.4602C7.16167 18.0629 8.33165 18.3643 9.62572 18.3643C10.9198 18.3643 12.0809 18.0629 13.1091 17.4602C14.155 16.8575 14.9704 15.9977 15.5554 14.8809C16.1581 13.7641 16.4595 12.4701 16.4595 10.9987C16.4595 9.50966 16.1581 8.21559 15.5554 7.11652C14.9704 5.99972 14.1638 5.13996 13.1357 4.53724C12.1075 3.93453 10.9375 3.63317 9.62572 3.63317C8.31392 3.63317 7.14394 3.93453 6.11577 4.53724C5.08761 5.13996 4.27217 5.99972 3.66945 7.11652C3.08446 8.21559 2.79196 9.50966 2.79196 10.9987ZM35.1017 5.70722V20.2788H32.682V18.125C32.221 18.8695 31.574 19.4545 30.7408 19.88C29.9254 20.2877 29.0213 20.4915 28.0286 20.4915C26.8941 20.4915 25.8748 20.2611 24.9707 19.8002C24.0666 19.3216 23.3487 18.6125 22.8169 17.6729C22.3028 16.7334 22.0458 15.59 22.0458 14.2428V5.70722H24.4389V13.9237C24.4389 15.3596 24.8023 16.4675 25.5291 17.2475C26.2559 18.0098 27.2486 18.3909 28.5072 18.3909C29.8013 18.3909 30.8206 17.992 31.5651 17.1943C32.3097 16.3966 32.682 15.2355 32.682 13.711V5.70722H35.1017ZM40.437 3.34067C39.9761 3.34067 39.5861 3.18113 39.267 2.86204C38.948 2.54296 38.7884 2.15296 38.7884 1.69206C38.7884 1.23116 38.948 0.841166 39.267 0.522081C39.5861 0.202995 39.9761 0.0434517 40.437 0.0434517C40.8802 0.0434517 41.2525 0.202995 41.5538 0.522081C41.8729 0.841166 42.0324 1.23116 42.0324 1.69206C42.0324 2.15296 41.8729 2.54296 41.5538 2.86204C41.2525 3.18113 40.8802 3.34067 40.437 3.34067ZM41.607 5.70722V20.2788H39.1873V5.70722H41.607ZM47.5392 18.2845H54.692V20.2788H44.7738V18.2845L51.8468 7.67492H44.8269V5.70722H54.6388V7.67492L47.5392 18.2845Z" fill="#3B3B3B"/>
<path d="M71.8715 7.11652C71.3575 6.03517 70.6129 5.202 69.6379 4.61701C68.663 4.0143 67.5284 3.71294 66.2344 3.71294C64.9403 3.71294 63.7703 4.0143 62.7244 4.61701C61.6963 5.202 60.8808 6.0529 60.2781 7.1697C59.6931 8.26877 59.4006 9.54512 59.4006 10.9987C59.4006 12.4523 59.6931 13.7287 60.2781 14.8278C60.8808 15.9268 61.6963 16.7777 62.7244 17.3804C63.7703 17.9654 64.9403 18.2579 66.2344 18.2579C68.0425 18.2579 69.5316 17.7173 70.7016 16.6359C71.8715 15.5546 72.554 14.0921 72.749 12.2485H65.3569V10.2808H75.3283V12.1421C75.1865 13.6666 74.7079 15.0671 73.8924 16.3434C73.077 17.602 72.0045 18.6036 70.675 19.3481C69.3454 20.0749 67.8652 20.4384 66.2344 20.4384C64.5148 20.4384 62.946 20.0395 61.5278 19.2418C60.1097 18.4263 58.984 17.3007 58.1509 15.8648C57.3354 14.4289 56.9277 12.8069 56.9277 10.9987C56.9277 9.19058 57.3354 7.56856 58.1509 6.13267C58.984 4.67906 60.1097 3.5534 61.5278 2.75568C62.946 1.94024 64.5148 1.53252 66.2344 1.53252C68.2021 1.53252 69.9393 2.02001 71.4461 2.995C72.9706 3.96998 74.0786 5.34382 74.7699 7.11652H71.8715ZM80.9474 8.07378C81.3729 7.24061 81.9756 6.59357 82.7556 6.13267C83.5533 5.67177 84.5194 5.44132 85.6539 5.44132V7.94083H85.0158C82.3035 7.94083 80.9474 9.41217 80.9474 12.3548V20.2788H78.5277V5.70722H80.9474V8.07378ZM87.5431 12.9398C87.5431 11.4508 87.8445 10.1478 88.4472 9.03104C89.0499 7.89651 89.8742 7.01902 90.9201 6.39858C91.9837 5.77813 93.1625 5.46791 94.4566 5.46791C95.733 5.46791 96.8409 5.74268 97.7804 6.29222C98.72 6.84175 99.4202 7.5331 99.8811 8.36627V5.70722H102.327V20.2788H99.8811V17.5666C99.4024 18.4175 98.6845 19.1266 97.7272 19.6938C96.7877 20.2434 95.6886 20.5181 94.43 20.5181C93.136 20.5181 91.966 20.199 90.9201 19.5609C89.8742 18.9227 89.0499 18.0275 88.4472 16.8752C87.8445 15.723 87.5431 14.4112 87.5431 12.9398ZM99.8811 12.9664C99.8811 11.8674 99.6595 10.9101 99.2163 10.0947C98.7731 9.27921 98.1704 8.65877 97.4082 8.23332C96.6636 7.79015 95.8393 7.56856 94.9352 7.56856C94.0312 7.56856 93.2069 7.78128 92.4623 8.20673C91.7178 8.63218 91.1239 9.25262 90.6808 10.0681C90.2376 10.8835 90.016 11.8408 90.016 12.9398C90.016 14.0566 90.2376 15.0316 90.6808 15.8648C91.1239 16.6802 91.7178 17.3095 92.4623 17.7527C93.2069 18.1782 94.0312 18.3909 94.9352 18.3909C95.8393 18.3909 96.6636 18.1782 97.4082 17.7527C98.1704 17.3095 98.7731 16.6802 99.2163 15.8648C99.6595 15.0316 99.8811 14.0655 99.8811 12.9664ZM105.512 12.9398C105.512 11.4508 105.814 10.1478 106.417 9.03104C107.019 7.89651 107.844 7.01902 108.889 6.39858C109.953 5.77813 111.141 5.46791 112.453 5.46791C113.587 5.46791 114.642 5.73381 115.617 6.26562C116.592 6.77971 117.336 7.4622 117.85 8.31309V0.601853H120.297V20.2788H117.85V17.54C117.372 18.4086 116.663 19.1266 115.723 19.6938C114.784 20.2434 113.685 20.5181 112.426 20.5181C111.132 20.5181 109.953 20.199 108.889 19.5609C107.844 18.9227 107.019 18.0275 106.417 16.8752C105.814 15.723 105.512 14.4112 105.512 12.9398ZM117.85 12.9664C117.85 11.8674 117.629 10.9101 117.186 10.0947C116.742 9.27921 116.14 8.65877 115.378 8.23332C114.633 7.79015 113.809 7.56856 112.905 7.56856C112.001 7.56856 111.176 7.78128 110.432 8.20673C109.687 8.63218 109.093 9.25262 108.65 10.0681C108.207 10.8835 107.985 11.8408 107.985 12.9398C107.985 14.0566 108.207 15.0316 108.65 15.8648C109.093 16.6802 109.687 17.3095 110.432 17.7527C111.176 18.1782 112.001 18.3909 112.905 18.3909C113.809 18.3909 114.633 18.1782 115.378 17.7527C116.14 17.3095 116.742 16.6802 117.186 15.8648C117.629 15.0316 117.85 14.0655 117.85 12.9664Z" fill="#FCC822"/>
</svg>
