<svg xmlns="http://www.w3.org/2000/svg" viewBox="0 0 39.57 42.63"><defs><style>.cls-1{fill:#fcc822;}</style></defs><g id="Layer_2" data-name="Layer 2"><g id="Layer_1-2" data-name="Layer 1"><path class="cls-1" d="M38.08,2.5l-.91-.92a5.25,5.25,0,0,0-7.32,0L28,3.41A19.4,19.4,0,0,0,17.36,1.73a19.82,19.82,0,0,0,2.43,39.48,19.13,19.13,0,0,0,9.3-2.29l3.35,3.35c.16.15.31.31.46.31h1.22c.15,0,.3-.16.46-.31s.3-.3.3-.46V34.19a19.75,19.75,0,0,0,4.57-12.64,19.47,19.47,0,0,0-2.89-10.22l1.52-1.52A5.24,5.24,0,0,0,38.08,2.5ZM35,22.92h1.53A16.73,16.73,0,0,1,29.4,35.11a11.58,11.58,0,0,1-1.83,1.07A16.74,16.74,0,0,1,21.47,38V36.48A1.63,1.63,0,0,0,20,35a1.64,1.64,0,0,0-1.53,1.52V38A16.91,16.91,0,0,1,3.18,22.76H4.71a1.63,1.63,0,0,0,1.52-1.52,1.63,1.63,0,0,0-1.52-1.52H3A16.89,16.89,0,0,1,18.27,4.63V6.15a1.64,1.64,0,0,0,1.52,1.53,1.64,1.64,0,0,0,1.53-1.53V4.63A16.9,16.9,0,0,1,36.56,19.87H35a1.53,1.53,0,0,0,0,3.05Z"/><path class="cls-1" d="M19.81,7.58V1.49a18.76,18.76,0,0,0-8.23,1.82L9.75,1.49a5.22,5.22,0,0,0-7.31,0l-.92.91a5.25,5.25,0,0,0,0,7.32L2.9,11.09A19.44,19.44,0,0,0,0,21.3,19.86,19.86,0,0,0,4.57,34v7.92c0,.15.15.31.31.46s.3.15.45.3H6.86c.15,0,.3-.15.46-.3L10.67,39A19.11,19.11,0,0,0,20,41.26V35.17a1.63,1.63,0,0,0-1.52,1.52v1.52a13.64,13.64,0,0,1-6.1-1.82c-.61-.31-1.21-.77-1.82-1.07A16.71,16.71,0,0,1,3.35,23.13H4.88A1.64,1.64,0,0,0,6.4,21.6a1.63,1.63,0,0,0-1.52-1.52H3.05A17,17,0,0,1,18.29,4.53V6.06A1.63,1.63,0,0,0,19.81,7.58Z"/></g></g></svg>